# xmcd CD database file
#
# Track frame offsets:
#	150
#	14840
#	29424
#	47634
#	65813
#	80055
#	97190
#	109939
#	124637
#	140875
#	155162
#	171904
#	180795
#	197325
#	212899
#	229015
#
# Disc length: 3336 seconds
#
# Revision: 0
# Processed by: cddbd v1.5.2PL0 Copyright (c) Steve Scherf et al.
# Submitted via: CDex 1.51
#
DISCID=ec0d0610
DTITLE=Jakub Smolík - Hity Jakuba Solíka
DYEAR=2010
DGENRE=Country
TTITLE0=Zachrante milenky
TTITLE1=Az se ti jednou bude zdat
TTITLE2=Jen blazen zarli
TTITLE3=Madony 
TTITLE4=Popelky
TTITLE5=Ma Janny 
TTITLE6=Styskani 
TTITLE7=Reknete ji 
TTITLE8=Sen kovboju 
TTITLE9=Tobe 
TTITLE10=Chci ti rict
TTITLE11=16 ruzi 
TTITLE12=Stary chlapy ty to znaj
TTITLE13=Vzpominky na Blanik
TTITLE14=Muz se srdcem kovboje
TTITLE15=Ave Maria 
EXTD=YEAR: 2010
EXTT0=
EXTT1=
EXTT2=
EXTT3=
EXTT4=
EXTT5=
EXTT6=
EXTT7=
EXTT8=
EXTT9=
EXTT10=
EXTT11=
EXTT12=
EXTT13=
EXTT14=
EXTT15=
PLAYORDER=
